<?xml version="1.0" ?><!DOCTYPE svg  PUBLIC '-//W3C//DTD SVG 1.1//EN'  'http://www.w3.org/Graphics/SVG/1.1/DTD/svg11.dtd'><svg enable-background="new 0 0 512 512" height="512px" id="Layer_1" version="1.1" viewBox="0 0 512 512" width="512px" xml:space="preserve" xmlns="http://www.w3.org/2000/svg" xmlns:xlink="http://www.w3.org/1999/xlink"><g><path d="M510.689,478.854c0,17.561-14.275,31.836-31.836,31.836H33.146c-17.56,0-31.836-14.275-31.836-31.836   V33.146c0-17.56,14.276-31.836,31.836-31.836h445.707c17.561,0,31.836,14.276,31.836,31.836V478.854z" fill="#363636"/></g><g><circle clip-rule="evenodd" cx="256" cy="256" fill-rule="evenodd" r="186.975"/><radialGradient cx="334.4707" cy="269.8057" gradientUnits="userSpaceOnUse" id="SVGID_1_" r="116.0731"><stop offset="0" style="stop-color:#F6EB16"/><stop offset="1" style="stop-color:#F8991D"/></radialGradient><path clip-rule="evenodd" d="M287.631,372.15c-7.71-14.073-9.873-32.703-4.705-52.966   c8.434-33.083,33.921-60.788,62.387-71.001c16.592,28.224,21.809,61.7,12.577,93.1C338.029,356.988,313.984,367.887,287.631,372.15   L287.631,372.15z" fill="url(#SVGID_1_)" fill-rule="evenodd"/><path clip-rule="evenodd" d="M320.608,396.94c-13.083-2.823-23.606-10.308-30.644-20.919   c24.695-5.074,47.303-15.518,66.416-29.995c-1.154,3.362-2.477,6.696-3.976,9.992C344.952,372.419,333.961,386.185,320.608,396.94   L320.608,396.94z" fill="#ED2024" fill-rule="evenodd"/><linearGradient gradientUnits="userSpaceOnUse" id="SVGID_2_" x1="389.9258" x2="389.9258" y1="320.7041" y2="244.022"><stop offset="0.3147" style="stop-color:#EF3B24"/><stop offset="1" style="stop-color:#FBAD18"/></linearGradient><path clip-rule="evenodd" d="M379.211,320.704c5.186-26.054,1.937-52.7-8.444-76.683   c16.305,0.615,29.539,7.808,38.317,19.287C403.56,284.689,393.203,304.209,379.211,320.704L379.211,320.704z" fill="url(#SVGID_2_)" fill-rule="evenodd"/><linearGradient gradientUnits="userSpaceOnUse" id="SVGID_3_" x1="326.1279" x2="432.2385" y1="393.7139" y2="287.6033"><stop offset="0" style="stop-color:#EF3B24"/><stop offset="1" style="stop-color:#FBAD18"/></linearGradient><path clip-rule="evenodd" d="M408.647,346.94   c-7.903,12.065-17.236,23.112-27.753,32.901c-15.061,11.844-32.724,18.809-50.014,18.322c-0.105-0.002-0.211-0.009-0.316-0.013   c16.42-12.497,30.015-28.856,39.17-48.521c3.545-7.617,6.27-15.401,8.214-23.262c15.462-16.928,27.139-37.094,33.761-59.294   c9.096,14.364,11.973,34.195,6.438,55.901C416.005,331.379,412.758,339.432,408.647,346.94L408.647,346.94z" fill="url(#SVGID_3_)" fill-rule="evenodd"/><linearGradient gradientUnits="userSpaceOnUse" id="SVGID_4_" x1="353.3369" x2="247.7731" y1="380.624" y2="441.5713"><stop offset="0.2538" style="stop-color:#EE2F24"/><stop offset="0.7919" style="stop-color:#FED900"/></linearGradient><path clip-rule="evenodd" d="M323.898,402.906c0.479,0.021,0.959,0.047,1.441,0.061   c12.391,0.336,24.793-2.436,36.472-7.664c-28.896,20.287-64.097,32.201-102.077,32.201c-7.033,0-13.966-0.422-20.785-1.216   C269.472,427.662,299.361,419.322,323.898,402.906L323.898,402.906z" fill="url(#SVGID_4_)" fill-rule="evenodd"/><radialGradient cx="239.9727" cy="277.9062" gradientUnits="userSpaceOnUse" id="SVGID_5_" r="273.448"><stop offset="0.4467" style="stop-color:#F47D20"/><stop offset="0.5279" style="stop-color:#FEEA00"/></radialGradient><path clip-rule="evenodd" d="M276.011,378.289   c9.179,12.068,22.291,20.482,38.157,23.483c-34.098,23.77-81.025,29.453-124.168,11.533c-4.528-1.931-8.953-4.052-13.279-6.338   c-45.481-24.74-71.5-71.682-68.608-118.224c25.549,53.531,82.043,90.75,147.621,90.75   C262.602,379.494,269.368,379.082,276.011,378.289L276.011,378.289z" fill="url(#SVGID_5_)" fill-rule="evenodd"/><radialGradient cx="290.3721" cy="201.4062" gradientUnits="userSpaceOnUse" id="SVGID_6_" r="347.6525"><stop offset="0.0051" style="stop-color:#F99B1C"/><stop offset="0.3807" style="stop-color:#ED2224"/></radialGradient><path clip-rule="evenodd" d="M332.359,229.938   c-32.615,12.332-60.578,43.946-68.646,81.56c-5.135,23.939-1.268,45.911,9.18,62.319c-3.379,0.22-6.787,0.342-10.225,0.342   c-72.927,0-133.795-50.275-147.89-117.098c0.944-2.56,1.982-5.102,3.127-7.622c27.29-60.042,101.928-84.873,166.669-55.447   C303.705,202.687,319.832,215.148,332.359,229.938L332.359,229.938z" fill="url(#SVGID_6_)" fill-rule="evenodd"/><linearGradient gradientUnits="userSpaceOnUse" id="SVGID_7_" x1="81.8281" x2="139.9297" y1="259.6162" y2="259.6162"><stop offset="0.2538" style="stop-color:#EE2F24"/><stop offset="0.6904" style="stop-color:#FED900"/></linearGradient><path clip-rule="evenodd" d="M103.536,278.129   c-3.398,37.414,10.003,74.916,36.394,102.975c-35.697-32.535-58.102-79.41-58.102-131.505c0-42.201,14.712-80.966,39.27-111.47   c-17.385,24.686-27.534,54.411-27.534,86.397C93.564,243.368,97.089,261.424,103.536,278.129L103.536,278.129z" fill="url(#SVGID_7_)" fill-rule="evenodd"/><radialGradient cx="320.0723" cy="140.2056" gradientUnits="userSpaceOnUse" id="SVGID_8_" r="257.2164"><stop offset="0.0812" style="stop-color:#FFFFFF"/><stop offset="0.3756" style="stop-color:#FED900"/><stop offset="0.8122" style="stop-color:#F58020"/></radialGradient><path clip-rule="evenodd" d="M412.148,248.044   c-11.26-14.189-28.103-23.068-48.511-23.623c-1.113-0.031-2.228-0.029-3.341-0.01c-14.266-22.155-35.256-40.742-61.679-52.526   c-70.352-31.378-152.613-2.673-183.697,64.099c-0.889,1.909-1.719,3.829-2.505,5.756c-0.468-4.7-0.715-9.461-0.715-14.281   c0-81.006,67.604-146.699,150.967-146.699c83.363,0,150.967,65.693,150.967,146.699   C413.635,234.447,413.12,241.317,412.148,248.044L412.148,248.044z" fill="url(#SVGID_8_)" fill-rule="evenodd"/><linearGradient gradientUnits="userSpaceOnUse" id="SVGID_9_" x1="294.0117" x2="463.1435" y1="107.2134" y2="276.3452"><stop offset="0.3198" style="stop-color:#FED900"/><stop offset="0.934" style="stop-color:#F04C23"/></linearGradient><path clip-rule="evenodd" d="M319.299,81.925   c68.951,24.504,118.342,90.327,118.342,167.673c0,22.638-4.24,44.284-11.953,64.202c4.592-23.719,0.325-45.382-10.398-61.445   c1.715-9.029,2.614-18.329,2.614-27.83C417.903,160.513,377.262,105.556,319.299,81.925L319.299,81.925z" fill="url(#SVGID_9_)" fill-rule="evenodd"/></g></svg>